<?xml version="1.0" standalone="no"?>
<!DOCTYPE svg PUBLIC "-//W3C//DTD SVG 20010904//EN"
 "http://www.w3.org/TR/2001/REC-SVG-20010904/DTD/svg10.dtd">
<svg version="1.0" xmlns="http://www.w3.org/2000/svg"
 width="1024.000000pt" height="1024.000000pt" viewBox="0 0 1024.000000 1024.000000"
 preserveAspectRatio="xMidYMid meet">
<metadata>
Created by potrace 1.16, written by Peter Selinger 2001-2019
</metadata>
<g transform="translate(0.000000,1024.000000) scale(0.100000,-0.100000)"
fill="#000000" stroke="none">
<path d="M0 5120 l0 -5120 5120 0 5120 0 0 5120 0 5120 -5120 0 -5120 0 0
-5120z m2682 1461 l3 -470 69 44 c276 178 693 180 1002 4 90 -51 226 -176 289
-263 46 -65 135 -239 135 -265 0 -9 21 20 46 64 118 208 271 353 484 460 171
85 321 123 526 132 548 23 989 -235 1191 -697 l33 -75 0 768 0 767 400 0 400
0 2 -820 3 -819 250 414 250 414 448 1 c246 0 447 -2 447 -4 0 -3 -153 -225
-340 -495 -187 -270 -340 -495 -340 -500 0 -5 167 -269 370 -587 l370 -579
-467 -3 c-388 -2 -470 0 -478 12 -5 7 -122 219 -260 471 l-250 458 -3 -471 -2
-472 -400 0 -400 0 0 363 0 362 -33 -75 c-94 -215 -220 -367 -413 -496 -145
-97 -307 -158 -504 -190 -116 -19 -377 -13 -487 11 -362 79 -648 288 -806 586
l-35 67 -31 -71 c-111 -251 -332 -454 -592 -545 -183 -64 -451 -80 -619 -37
-82 22 -224 87 -272 125 -20 17 -39 30 -42 30 -3 0 -6 -29 -6 -65 l0 -65 -370
0 -370 0 0 1490 0 1490 400 0 400 0 2 -469z"/>
<path d="M2913 5581 c-127 -43 -211 -144 -244 -289 -15 -68 -12 -219 6 -286
47 -177 171 -281 351 -294 260 -18 428 156 428 443 0 219 -100 380 -267 430
-70 21 -208 19 -274 -4z"/>
<path d="M5163 5582 c-70 -25 -123 -62 -167 -115 -127 -155 -138 -412 -25
-589 37 -58 88 -99 166 -136 52 -24 70 -27 163 -27 97 0 110 2 171 31 91 44
142 93 184 178 44 89 59 168 52 271 -13 178 -95 308 -237 374 -75 34 -228 41
-307 13z"/>
</g>
</svg>
